<?xml version="1.0" standalone="no"?>
<!DOCTYPE svg PUBLIC "-//W3C//DTD SVG 20010904//EN"
 "http://www.w3.org/TR/2001/REC-SVG-20010904/DTD/svg10.dtd">
<svg version="1.0" xmlns="http://www.w3.org/2000/svg"
 width="700.000000pt" height="700.000000pt" viewBox="0 0 700.000000 700.000000"
 preserveAspectRatio="xMidYMid meet">
<metadata>
Created by potrace 1.14, written by Peter Selinger 2001-2017
</metadata>
<g transform="translate(0.000000,700.000000) scale(0.100000,-0.100000)"
fill="#000000" stroke="none">
<path d="M3493 6328 c-6 -7 -63 -105 -128 -218 -65 -113 -161 -279 -213 -370
-52 -91 -125 -218 -163 -282 -38 -64 -69 -121 -69 -127 0 -6 -4 -11 -10 -11
-5 0 -10 -4 -10 -9 0 -5 -27 -55 -60 -111 -33 -56 -60 -103 -60 -106 0 -2 -17
-32 -38 -66 -21 -35 -50 -83 -64 -108 -29 -53 -192 -335 -291 -505 -38 -66
-81 -140 -95 -165 -14 -25 -56 -99 -95 -165 -38 -66 -79 -136 -90 -155 -10
-19 -40 -71 -66 -115 -25 -44 -50 -88 -56 -97 -28 -50 -224 -387 -247 -427
-15 -25 -31 -53 -35 -61 -3 -8 -25 -46 -48 -85 -23 -38 -97 -167 -165 -285
-68 -118 -163 -283 -211 -367 -110 -188 -151 -260 -192 -333 -8 -14 -88 -153
-179 -310 -91 -157 -173 -298 -182 -315 -9 -16 -21 -37 -26 -45 -6 -8 -67
-114 -136 -235 -70 -121 -160 -278 -202 -350 -41 -71 -86 -150 -100 -175 -13
-25 -29 -51 -35 -57 -5 -7 -6 -14 -1 -14 33 -4 6522 -4 6535 1 14 4 4 26 -53
125 -89 152 -207 356 -240 415 -14 25 -64 112 -112 193 -47 82 -86 153 -86
158 0 5 -4 9 -10 9 -5 0 -10 4 -10 10 0 5 -27 55 -60 111 -33 55 -60 102 -60
104 0 1 -30 54 -66 116 -77 131 -206 355 -459 794 -98 171 -188 326 -200 345
-12 19 -34 58 -49 85 -15 28 -35 64 -45 80 -15 26 -398 688 -453 785 -11 19
-174 301 -361 625 -187 325 -349 606 -359 625 -11 19 -32 55 -48 80 -26 42
-393 681 -448 780 -14 25 -43 73 -64 108 -21 34 -38 64 -38 67 0 2 -8 18 -19
35 -14 23 -20 28 -28 18z"/>
</g>
</svg>
